:SAMPLES-PER-SECOND 30
:FULLY-SPECIFIED
:DEGREES
351
root  -5.64206 32.6519 25.5983 -40.5543 9.66917 -30.9468
RightUpLeg  -16.0471 -16.781 -26.949
RightLeg  6.93294 -6.23653 -2.68812
RightFoot  16.6582 -2.68358 11.1826
RightToes  -5.82094e-011 -1.98785e-016 -5.10186e-018
Spine  37.8234 0.213435 12.6942
Spine1  1.34127 4.16548 8.32202
HEad  -9.87779 -14.6045 17.4255
LeftShoulder1  3.61318 -8.34473 -24.3193
LeftArm  -29.0339 6.43243 -46.2042
LeftForeArm  28.3496 -20.6173 -3.18666
LeftHand  0.323509 12.538 6.20019
RightShoulder  3.9661 8.77277 26.2576
RightArm  -20.3844 -3.37087 10.7534
RightForeArm  15.8977 65.4689 24.0133
RightHand  -1.60382 7.11747 -15.1308
LeftUpLeg  -10.9764 15.4038 13.7161
LeftLeg  56.1 3.05123 5.39899
LeftFoot  -12.6628 0.340318 22.5572
LeftToes  -8.4584e-011 5.90861e-011 8.40072e-012
352
root  -5.45453 32.8204 26.2699 -42.5223 11.5716 -30.5903
RightUpLeg  -31.2893 -18.5965 -21.7105
RightLeg  -2.07379 -12.4367 -6.17489
RightFoot  15.1226 -2.46179 10.8966
RightToes  -5.82094e-011 -1.98785e-016 -5.10186e-018
Spine  40.1878 -0.753782 9.99579
Spine1  2.43328 2.12357 11.1923
HEad  -10.2141 -11.4248 16.2756
LeftShoulder1  3.85448 -10.2876 -21.5731
LeftArm  -27.4065 -6.62597 -42.2533
LeftForeArm  33.8589 -24.7894 -3.51607
LeftHand  0.401985 10.84 9.24268
RightShoulder  3.60687 7.97435 25.3513
RightArm  -25.1259 -4.60783 8.88468
RightForeArm  9.42874 64.3757 23.5508
RightHand  -1.70911 6.94057 -16.3092
LeftUpLeg  -8.47909 15.5718 13.6291
LeftLeg  57.2578 2.09564 4.05746
LeftFoot  -11.6708 0.133451 21.5883
LeftToes  -8.4584e-011 5.90861e-011 8.40072e-012
353
root  -5.49467 33.0852 27.0432 -45.4587 16.3808 -30.6445
RightUpLeg  -44.8485 -18.3046 -19.6891
RightLeg  -2.82366 -22.6245 -5.77124
RightFoot  15.0625 -2.67197 11.823
RightToes  -5.82094e-011 -1.98785e-016 -5.10186e-018
Spine  42.5181 -1.38576 5.88017
Spine1  3.14608 -0.342756 13.2766
HEad  -10.365 -10.2593 16.2274
LeftShoulder1  3.46985 -10.8301 -17.5874
LeftArm  -29.6514 -19.7207 -38.4635
LeftForeArm  37.7001 -30.6364 -4.61421
LeftHand  0.746228 12.3818 12.8984
RightShoulder  3.35863 7.24928 25.1583
RightArm  -28.669 -7.69227 7.46934
RightForeArm  3.0105 62.8601 22.5349
RightHand  -1.54878 6.53964 -15.3009
LeftUpLeg  -5.19297 13.3702 12.0531
LeftLeg  57.4093 1.11284 2.42855
LeftFoot  -11.1126 0.0249979 21.5616
LeftToes  -8.4584e-011 5.90861e-011 8.40072e-012
354
root  -5.38117 33.5105 28.0348 -51.2044 21.5045 -33.6337
RightUpLeg  -54.8859 -18.2349 -16.4777
RightLeg  2.20498 -18.0614 -4.6188
RightFoot  16.4982 -2.31793 9.78077
RightToes  -5.82094e-011 -1.98785e-016 -5.10186e-018
Spine  45.0631 -3.45905 4.01401
Spine1  4.20085 -3.16565 14.6241
HEad  -9.63924 -10.0944 16.5389
LeftShoulder1  3.18653 -11.8834 -13.7463
LeftArm  -34.8453 -31.152 -34.8418
LeftForeArm  43.0239 -36.6501 -5.77517
LeftHand  0.937001 13.2248 14.3377
RightShoulder  3.19488 6.67014 25.3332
RightArm  -29.8539 -11.3428 5.86521
RightForeArm  -2.13588 59.7069 20.0069
RightHand  -1.47609 6.18168 -15.0212
LeftUpLeg  1.21041 8.98131 12.8067
LeftLeg  55.8652 -0.0462049 0.46862
LeftFoot  -13.0284 0.421089 22.7737
LeftToes  -8.4584e-011 5.90861e-011 8.40072e-012
355
root  -4.9249 34.2675 29.1182 -56.1646 25.4719 -39.1294
RightUpLeg  -63.0411 -16.0929 -12.4888
RightLeg  7.03134 -9.12992 -2.18498
RightFoot  16.2222 -2.63698 11.2103
RightToes  -5.82094e-011 -1.98785e-016 -5.10186e-018
Spine  45.5917 -5.60713 3.62294
Spine1  4.37672 -5.73763 17.9272
HEad  -7.10765 -10.3871 15.8088
LeftShoulder1  3.09059 -13.4917 -10.9797
LeftArm  -40.1781 -40.8515 -32.3677
LeftForeArm  50.0528 -40.7317 -6.50168
LeftHand  0.892077 11.7595 16.6609
RightShoulder  2.91116 5.79366 25.246
RightArm  -28.7685 -13.5444 4.07944
RightForeArm  -6.52911 53.613 15.9495
RightHand  -1.71269 7.01146 -16.2881
LeftUpLeg  6.03009 4.4291 15.3336
LeftLeg  52.9825 -1.68207 -1.90992
LeftFoot  -14.2928 0.70622 23.7863
LeftToes  -8.4584e-011 5.90861e-011 8.40072e-012
356
root  -4.44131 35.1459 30.1117 -61.4351 29.8421 -45.3727
RightUpLeg  -69.7504 -14.1149 -6.86224
RightLeg  12.0683 -2.13172 -0.641579
RightFoot  14.5948 -3.09504 13.8072
RightToes  -5.82094e-011 -1.98785e-016 -5.10186e-018
Spine  46.0862 -6.36616 1.76251
Spine1  3.73486 -8.3353 23.8394
HEad  -4.91045 -11.5024 15.6651
LeftShoulder1  2.57379 -15.0948 -6.09257
LeftArm  -42.3971 -48.7334 -34.5361
LeftForeArm  55.3703 -43.622 -7.0638
LeftHand  0.889208 10.7155 19.5247
RightShoulder  2.64187 4.9431 25.2126
RightArm  -27.3009 -15.8712 3.47673
RightForeArm  -8.6464 45.9697 12.1506
RightHand  -1.79185 8.19693 -15.5521
LeftUpLeg  8.71941 0.365498 17.5186
LeftLeg  50.8084 -3.64298 -4.32368
LeftFoot  -11.9456 0.201724 23.8056
LeftToes  -8.4584e-011 5.90861e-011 8.40072e-012
357
root  -3.88197 36.1013 31.1418 -67.2767 34.9134 -52.2082
RightUpLeg  -73.6858 -11.264 -2.43288
RightLeg  16.8995 -3.22691 -1.34216
RightFoot  15.3777 -3.80819 16.3732
RightToes  -5.82094e-011 -1.98785e-016 -5.10186e-018
Spine  46.66 -6.22491 -1.12534
Spine1  2.3279 -10.574 30.6162
HEad  -3.39713 -13.5022 15.5305
LeftShoulder1  1.90663 -16.1427 -1.40067
LeftArm  -38.6787 -56.7975 -40.0911
LeftForeArm  57.9727 -45.5156 -7.52369
LeftHand  0.845656 10.2586 20.3393
RightShoulder  2.39241 4.15236 25.1986
RightArm  -25.3797 -19.643 3.94588
RightForeArm  -12.5881 39.4663 9.94481
RightHand  -1.94514 8.06574 -17.0047
LeftUpLeg  10.7164 -2.37172 19.2348
LeftLeg  48.1823 -5.18118 -5.73936
LeftFoot  -8.51974 -0.522394 22.8391
LeftToes  -8.4584e-011 5.90861e-011 8.40072e-012
358
root  -3.01368 37.0622 32.2243 -73.1608 40.0585 -59.2031
RightUpLeg  -75.3712 -7.61207 0.504921
RightLeg  21.725 -3.24647 -1.59225
RightFoot  16.2982 -4.5295 18.7454
RightToes  -5.82094e-011 -1.98785e-016 -5.10186e-018
Spine  45.8835 -6.06322 -4.11771
Spine1  1.07749 -12.3054 35.9844
HEad  -2.28422 -16.4367 15.8534
LeftShoulder1  1.38686 -16.562 1.76555
LeftArm  -26.6472 -64.4946 -50.5826
LeftForeArm  60.0231 -47.3314 -8.01683
LeftHand  0.615626 9.13368 19.2283
RightShoulder  2.09043 3.15996 25.318
RightArm  -23.6615 -24.5988 5.60585
RightForeArm  -14.6898 34.0304 8.38512
RightHand  -1.91559 8.43051 -16.3022
LeftUpLeg  13.3342 0.0553216 22.366
LeftLeg  43.9673 -5.69251 -5.47214
LeftFoot  -5.65591 -0.957565 20.0375
LeftToes  -8.4584e-011 5.90861e-011 8.40072e-012
359
root  -1.82825 37.9364 33.3358 -80.6933 46.6791 -68.3945
RightUpLeg  -75.8179 -5.73829 3.03768
RightLeg  27.3927 0.774938 0.22186
RightFoot  16.6653 -4.35833 17.8198
RightToes  -5.82094e-011 -1.98785e-016 -5.10186e-018
Spine  44.0426 -6.02905 -8.85207
Spine1  -0.581873 -14.4536 41.0599
HEad  -1.40861 -19.9809 16.1945
LeftShoulder1  0.988174 -16.8978 4.12228
LeftArm  -6.56056 -70.4611 -68.8858
LeftForeArm  62.5029 -48.6623 -8.34805
LeftHand  0.201602 6.93385 16.4587
RightShoulder  1.75082 2.1469 24.9429
RightArm  -21.3678 -29.9034 8.63428
RightForeArm  -16.9014 29.35 7.2245
RightHand  -1.69209 8.05641 -14.8623
LeftUpLeg  15.8185 6.00611 25.0692
LeftLeg  39.0256 -4.23871 -3.2987
LeftFoot  -2.32438 -1.07742 13.7075
LeftToes  -8.4584e-011 5.90861e-011 8.40072e-012
360
root  -0.50419 38.4422 34.4363 -93.5928 53.8309 -83.6812
RightUpLeg  -74.3921 -7.65073 5.36791
RightLeg  32.0571 3.87862 2.352
RightFoot  17.3505 -5.01939 19.9213
RightToes  -5.82094e-011 -1.98785e-016 -5.10186e-018
Spine  41.1739 -6.68928 -14.9828
Spine1  -1.66199 -17.8785 46.2922
HEad  -0.91892 -23.9874 16.3419
LeftShoulder1  0.816224 -17.6398 5.24002
LeftArm  19.2691 -72.1617 -91.9278
LeftForeArm  63.2511 -49.3323 -8.55152
LeftHand  0.0152623 5.61531 15.2419
RightShoulder  1.52922 1.38476 25.2908
RightArm  -20.172 -35.5464 11.8512
RightForeArm  -18.2979 26.4143 6.56806
RightHand  -1.87554 8.32797 -16.1079
LeftUpLeg  16.894 12.4993 26.3492
LeftLeg  35.6267 -0.701785 -0.182093
LeftFoot  0.40738 -0.761421 7.42727
LeftToes  -8.4584e-011 5.90861e-011 8.40072e-012
